<svg width="156" height="151" viewBox="0 0 156 151" fill="none" xmlns="http://www.w3.org/2000/svg">
<path d="M124.463 14L127.714 102.007H151.286L154.537 14H124.463Z" fill="#1D1719"/>
<path d="M151.448 144.223C148.305 147.408 144.296 149 139.419 149C134.65 149 130.749 147.408 127.714 144.223C124.571 140.916 123 136.874 123 132.097C123 127.197 124.571 123.094 127.714 119.787C130.749 116.48 134.65 114.826 139.419 114.826C144.296 114.826 148.305 116.48 151.448 119.787C154.483 123.094 156 127.197 156 132.097C156 136.874 154.483 140.916 151.448 144.223Z" fill="#2ABFC4"/>
<path d="M91.3172 63C86.3218 63 81.8138 61.9431 77.7931 59.8293C73.8333 57.7155 70.696 54.6957 68.381 50.77C66.127 46.8444 65 42.2544 65 37C65 31.806 66.1575 27.2462 68.4724 23.3206C70.7874 19.3345 73.9552 16.2846 77.9759 14.1707C81.9966 12.0569 86.5046 11 91.5 11C96.4954 11 101.003 12.0569 105.024 14.1707C109.045 16.2846 112.213 19.3345 114.528 23.3206C116.843 27.2462 118 31.806 118 37C118 42.194 116.812 46.784 114.436 50.77C112.121 54.6957 108.923 57.7155 104.841 59.8293C100.821 61.9431 96.3126 63 91.3172 63ZM91.3172 49.5923C94.3023 49.5923 96.8305 48.5052 98.9017 46.331C101.034 44.1568 102.1 41.0465 102.1 37C102.1 32.9535 101.064 29.8432 98.9931 27.669C96.9828 25.4948 94.4851 24.4077 91.5 24.4077C88.454 24.4077 85.9259 25.4948 83.9155 27.669C81.9052 29.7828 80.9 32.8932 80.9 37C80.9 41.0465 81.8747 44.1568 83.8241 46.331C85.8345 48.5052 88.3322 49.5923 91.3172 49.5923Z" fill="#2ABFC4"/>
<path d="M43.3836 20.2657C42.2735 18.2098 40.6667 16.6531 38.5632 15.5958C36.5182 14.4797 34.0934 13.9217 31.2888 13.9217C26.4392 13.9217 22.5536 15.5371 19.6322 18.7678C16.7107 21.9399 15.25 26.1986 15.25 31.5441C15.25 37.242 16.7692 41.7063 19.8075 44.9371C22.9042 48.1091 27.1403 49.6951 32.5158 49.6951C36.1968 49.6951 39.2936 48.7552 41.806 46.8755C44.3769 44.9958 46.2466 42.2937 47.4152 38.7692H28.3966V27.6671H61V41.6769C59.8898 45.4364 57.9909 48.9315 55.3032 52.1622C52.6738 55.393 49.3142 58.007 45.2241 60.0042C41.1341 62.0014 36.5182 63 31.3764 63C25.2998 63 19.8659 61.6783 15.0747 59.035C10.342 56.3329 6.6317 52.6028 3.94397 47.8448C1.31466 43.0867 0 37.6531 0 31.5441C0 25.435 1.31466 20.0014 3.94397 15.2434C6.6317 10.4266 10.342 6.6965 15.0747 4.05315C19.8075 1.35105 25.2122 0 31.2888 0C38.6509 0 44.8443 1.79161 49.8693 5.37482C54.9526 8.95804 58.3123 13.9217 59.9483 20.2657H43.3836Z" fill="#2ABFC4"/>
<path d="M58 71V125.415H41.0845V118.004C39.3699 120.409 37.0288 122.359 34.0612 123.855C31.1595 125.285 27.9281 126 24.3669 126C20.1463 126 16.4203 125.09 13.1888 123.27C9.95743 121.384 7.45144 118.686 5.67086 115.176C3.89029 111.665 3 107.537 3 102.791V71H19.8165V100.548C19.8165 104.189 20.7728 107.017 22.6853 109.032C24.5977 111.047 27.1697 112.055 30.4011 112.055C33.6984 112.055 36.3034 111.047 38.2158 109.032C40.1283 107.017 41.0845 104.189 41.0845 100.548V71H58Z" fill="#1D1719"/>
<path d="M76.8387 78.47C78.4799 75.9387 80.7448 73.8942 83.6333 72.3365C86.5218 70.7788 89.9027 70 93.7759 70C98.3056 70 102.409 71.1358 106.085 73.4075C109.761 75.6791 112.65 78.9243 114.75 83.143C116.917 87.3618 118 92.262 118 97.8438C118 103.425 116.917 108.358 114.75 112.642C112.65 116.861 109.761 120.138 106.085 122.475C102.409 124.746 98.3056 125.882 93.7759 125.882C89.9683 125.882 86.5874 125.103 83.6333 123.546C80.7448 121.988 78.4799 119.976 76.8387 117.51V151H60V70.7788H76.8387V78.47ZM100.866 97.8438C100.866 93.6899 99.6842 90.4447 97.3209 88.1082C95.0232 85.7067 92.1675 84.506 88.7538 84.506C85.4058 84.506 82.5501 85.7067 80.1868 88.1082C77.8891 90.5096 76.7402 93.7873 76.7402 97.9411C76.7402 102.095 77.8891 105.373 80.1868 107.774C82.5501 110.175 85.4058 111.376 88.7538 111.376C92.1019 111.376 94.9576 110.175 97.3209 107.774C99.6842 105.308 100.866 101.998 100.866 97.8438Z" fill="#1D1719"/>
</svg>
