<svg width="455" height="172" viewBox="0 0 455 172" fill="none" xmlns="http://www.w3.org/2000/svg">
<path d="M309.632 29.376V125.352H280.22V112.28C277.239 116.523 273.168 119.963 268.008 122.6C262.963 125.123 257.344 126.384 251.152 126.384C243.813 126.384 237.335 124.779 231.716 121.568C226.097 118.243 221.74 113.484 218.644 107.292C215.548 101.1 214 93.8186 214 85.448V29.376H243.24V81.492C243.24 87.9133 244.903 92.9013 248.228 96.456C251.553 100.011 256.025 101.788 261.644 101.788C267.377 101.788 271.907 100.011 275.232 96.456C278.557 92.9013 280.22 87.9133 280.22 81.492V29.376H309.632Z" fill="white"/>
<path d="M343.284 42.964C346.151 38.492 350.107 34.88 355.152 32.128C360.197 29.376 366.103 28 372.868 28C380.78 28 387.947 30.0067 394.368 34.02C400.789 38.0333 405.835 43.7667 409.504 51.22C413.288 58.6733 415.18 67.3307 415.18 77.192C415.18 87.0533 413.288 95.768 409.504 103.336C405.835 110.789 400.789 116.58 394.368 120.708C387.947 124.721 380.78 126.728 372.868 126.728C366.217 126.728 360.312 125.352 355.152 122.6C350.107 119.848 346.151 116.293 343.284 111.936V171.104H313.872V29.376H343.284V42.964ZM385.252 77.192C385.252 69.8533 383.188 64.12 379.06 59.992C375.047 55.7493 370.059 53.628 364.096 53.628C358.248 53.628 353.26 55.7493 349.132 59.992C345.119 64.2347 343.112 70.0253 343.112 77.364C343.112 84.7027 345.119 90.4933 349.132 94.736C353.26 98.9787 358.248 101.1 364.096 101.1C369.944 101.1 374.932 98.9787 379.06 94.736C383.188 90.3787 385.252 84.5307 385.252 77.192Z" fill="white"/>
<path d="M453.252 0L449.812 82.388H424.872L421.432 0H453.252Z" fill="white"/>
<path d="M424.7 121.908C428.025 124.889 432.268 126.38 437.428 126.38C442.473 126.38 446.601 124.889 449.812 121.908C453.137 118.812 454.8 115.028 454.8 110.556C454.8 105.969 453.137 102.128 449.812 99.032C446.601 95.936 442.473 94.388 437.428 94.388C432.268 94.388 428.025 95.936 424.7 99.032C421.489 102.128 419.884 105.969 419.884 110.556C419.884 115.028 421.489 118.812 424.7 121.908Z" fill="white"/>
<path fill-rule="evenodd" clip-rule="evenodd" d="M222.828 132.68C222.111 132.333 221.407 131.963 220.716 131.568C215.097 128.242 210.74 123.484 207.644 117.292C204.548 111.1 203 103.818 203 95.4477V80.9514C201.824 80.1804 200.602 79.4591 199.336 78.7876C191.768 74.7742 183.283 72.7676 173.88 72.7676C164.477 72.7676 155.992 74.7742 148.424 78.7876C140.856 82.8009 134.893 88.5916 130.536 96.1596C126.179 103.613 124 112.27 124 122.132C124 132.108 126.121 140.822 130.364 148.276C134.721 155.729 140.627 161.462 148.08 165.476C155.648 169.489 164.133 171.496 173.536 171.496C182.939 171.496 191.424 169.489 198.992 165.476C206.675 161.462 212.695 155.729 217.052 148.276C219.857 143.528 221.783 138.329 222.828 132.68ZM187.812 139.848C183.913 143.976 179.155 146.04 173.536 146.04C167.917 146.04 163.216 143.976 159.432 139.848C155.763 135.72 153.928 129.814 153.928 122.132C153.928 114.334 155.82 108.429 159.604 104.416C163.388 100.288 168.147 98.2236 173.88 98.2236C179.499 98.2236 184.2 100.288 187.984 104.416C191.883 108.544 193.832 114.449 193.832 122.132C193.832 129.814 191.825 135.72 187.812 139.848Z" fill="white"/>
<path d="M85.14 87.56C82.9613 83.5467 79.808 80.508 75.68 78.444C71.6667 76.2653 66.908 75.176 61.404 75.176C51.8867 75.176 44.2613 78.3293 38.528 84.636C32.7947 90.828 29.928 99.1413 29.928 109.576C29.928 120.699 32.9093 129.413 38.872 135.72C44.9493 141.912 53.2627 145.008 63.812 145.008C71.036 145.008 77.1133 143.173 82.044 139.504C87.0893 135.835 90.7587 130.56 93.052 123.68H55.728V102.008H119.712V129.356C117.533 136.695 113.807 143.517 108.532 149.824C103.372 156.131 96.7787 161.233 88.752 165.132C80.7253 169.031 71.6667 170.98 61.576 170.98C49.6507 170.98 38.9867 168.4 29.584 163.24C20.296 157.965 13.0147 150.684 7.74 141.396C2.58 132.108 0 121.501 0 109.576C0 97.6507 2.58 87.044 7.74 77.756C13.0147 68.3533 20.296 61.072 29.584 55.912C38.872 50.6373 49.4787 48 61.404 48C75.852 48 88.0067 51.4973 97.868 58.492C107.844 65.4867 114.437 75.176 117.648 87.56H85.14Z" fill="white"/>
</svg>
